Coordinates
version=1
nRows=4
nColumns=107
inDegrees=yes

Units are S.I. units (second, meters, Newtons, ...)
If the header above contains a line with 'inDegrees', this indicates whether rotational values are in degrees (yes) or radians (no).

endheader
time	sternoclavicular_r2	sternoclavicular_r3	unrotscap_r3	unrotscap_r2	acromioclavicular_r2	acromioclavicular_r3	acromioclavicular_r1	unrothum_r1	unrothum_r3	unrothum_r2	elv_angle	shoulder_elv	shoulder1_r2	shoulder_rot	elbow_flexion	pro_sup	deviation	flexion	proximal_distal_r1	proximal_distal_r3	cmc_flexion	cmc_abduction	mp_flexion	ip_flexion	mcp2_flexion	mcp2_abduction	pm2_flexion	md2_flexion	mcp3_flexion	mcp3_abduction	pm3_flexion	md3_flexion	mcp4_flexion	mcp4_abduction	pm4_flexion	md4_flexion	mcp5_flexion	mcp5_abduction	pm5_flexion	md5_flexion	bicpt_tx	bicpt_ty	bicpt_tz	bicpt2_tx	bicpt2_ty	bicpt2_tz	ptpt_tx	ptpt_ty	ptpt_tz	FCUpt_tx	FCUpt_ty	FCUpt_tz	EDCpt_tx	EDCpt_ty	EDCpt_tz	APLpt_tx	APLpt_ty	APLpt_tz	FPLpt_tx	FPLpt_ty	FPLpt_tz	FPLpt2_tx	FPLpt2_ty	FPLpt2_tz	PEC1pt2_tx	PEC1pt2_ty	PEC1pt2_tz	PEC1pt3_tx	PEC1pt3_ty	PEC1pt3_tz	PEC2pt2_tx	PEC2pt2_ty	PEC2pt2_tz	PEC2pt3_tx	PEC2pt3_ty	PEC2pt3_tz	PEC3pt2_tx	PEC3pt2_ty	PEC3pt2_tz	PEC3pt3_tx	PEC3pt3_ty	PEC3pt3_tz	DELT2pt2a_tx	DELT2pt2a_ty	DELT2pt2a_tz	DELT2pt2_tx	DELT2pt2_ty	DELT2pt2_tz	LAT1pt2_tx	LAT1pt2_ty	LAT1pt2_tz	LAT1pt3_tx	LAT1pt3_ty	LAT1pt3_tz	LAT2pt2_tx	LAT2pt2_ty	LAT2pt2_tz	LAT2pt3_tx	LAT2pt3_ty	LAT2pt3_tz	LAT3pt2_tx	LAT3pt2_ty	LAT3pt2_tz	LAT3pt3_tx	LAT3pt3_ty	LAT3pt3_tz
      1.53333333	     -0.30825338	      0.13056158	     -0.13056158	      0.30825338	     -0.06241504	      0.50441639	      0.22673170	     -0.22673170	     -0.50441639	      0.06241504	    103.47510835	     72.98172737	     -1.80598133	    -43.54971734	     31.26506393	     75.94223300	      0.32895809	     -0.19276198	      0.35786914	     -0.09638099	     28.26526833	    -10.27511330	    -18.76905100	      0.57412128	     -7.78670191	     10.30831921	     34.38145857	     13.55491094	     -3.78935592	     -3.23825835	     19.24637836	     17.56119767	      0.30850329	     -3.37126537	     11.52441096	     21.58068762	      4.93839203	    -13.93972692	      3.52741205	      5.23334907	      0.00093415	     -0.03118345	     -0.00487720	      0.01516387	     -0.01869331	     -0.00272751	      0.00193873	     -0.06852834	     -0.00616755	      0.01159821	     -0.18256397	     -0.00015514	     -0.00911305	      0.00304169	     -0.00046167	      0.00016611	      0.00006644	      0.00033222	      0.00021262	      0.00063786	      0.00035880	     -0.00000593	     -0.00026278	     -0.00031534	      0.00239218	      0.00839291	      0.00583854	     -0.00782527	      0.01889417	     -0.01792108	      0.00239218	      0.00839291	      0.00583854	      0.00052709	      0.01751563	     -0.00920381	      0.00382550	      0.00466719	      0.01566061	      0.00000000	      0.00711928	      0.00000000	     -0.00685218	     -0.03166599	     -0.00586621	      0.02365678	     -0.00124120	     -0.01506170	     -0.00085145	      0.01427199	     -0.00583854	      0.00235164	      0.02059708	     -0.01702908	     -0.00571691	      0.01236636	     -0.00523036	     -0.01192036	      0.02611126	     -0.02923326	     -0.02238108	      0.01382599	     -0.00701436	     -0.01483963	      0.03016581	     -0.03653144
      1.56666667	     -0.30638071	      0.12976841	     -0.12976841	      0.30638071	     -0.06203586	      0.50135201	      0.22535428	     -0.22535428	     -0.50135201	      0.06203586	    104.30899254	     72.53835629	     -1.82053536	    -46.86788186	     31.53243680	     79.31238272	      0.31689404	     -0.19653698	      0.34787399	     -0.09826849	     27.73942114	     -9.73376179	    -18.42797204	     -0.54786860	     -7.56753008	     10.35591577	     34.45797499	     13.77829843	     -3.35209370	     -3.23077764	     18.99276403	     17.76868428	      0.28156184	     -3.44132697	     11.61073269	     22.49311475	      4.42378655	    -13.94223334	      3.86829744	      5.22447695	      0.00094300	     -0.03121410	     -0.00488214	      0.01488004	     -0.01876594	     -0.00218993	      0.00168971	     -0.06868936	     -0.00643904	      0.01197665	     -0.18245786	     -0.00008356	     -0.00951746	      0.00321792	     -0.00055460	      0.00016874	      0.00006750	      0.00033748	      0.00021599	      0.00064796	      0.00036448	     -0.00000503	     -0.00026600	     -0.00031920	      0.00237765	      0.00834192	      0.00580307	     -0.00777773	      0.01877939	     -0.01781221	      0.00237765	      0.00834192	      0.00580307	      0.00052389	      0.01740922	     -0.00914790	      0.00380816	      0.00463883	      0.01561590	      0.00000000	      0.00703254	      0.00000000	     -0.00681055	     -0.03147361	     -0.00579412	      0.02445270	     -0.00136459	     -0.01715079	     -0.00084628	      0.01418529	     -0.00580307	      0.00233735	      0.02047195	     -0.01692563	     -0.00568218	      0.01229123	     -0.00519859	     -0.01184794	      0.02595263	     -0.02905567	     -0.02224511	      0.01374200	     -0.00697175	     -0.01474948	      0.02998255	     -0.03630951
      1.60000000	     -0.30596332	      0.12959162	     -0.12959162	      0.30596332	     -0.06195135	      0.50066901	      0.22504727	     -0.22504727	     -0.50066901	      0.06195135	    104.38541681	     72.43953566	     -1.82186921	    -47.35360740	     31.75025931	     80.35958949	      0.32697637	     -0.15633911	      0.35624382	     -0.07816955	     27.19482076	     -9.30818498	    -18.40131521	     -0.67857347	     -7.32158927	     10.24038259	     34.46001861	     13.20140225	     -3.31837503	     -3.33644565	     19.00372039	     17.82820126	      0.23543307	     -3.64456414	     11.51341567	     22.39166883	      3.84079075	    -13.97192427	      3.79271102	      5.22302140	      0.00095020	     -0.03123907	     -0.00488616	      0.01478655	     -0.01882511	     -0.00201965	      0.00161233	     -0.06873939	     -0.00652340	      0.01209496	     -0.18242423	     -0.00005958	     -0.00964313	      0.00327340	     -0.00058473	      0.00013949	      0.00005580	      0.00027899	      0.00017855	      0.00053565	      0.00030131	     -0.00000406	     -0.00026901	     -0.00032281	      0.00237441	      0.00833055	      0.00579517	     -0.00776713	      0.01875381	     -0.01778795	      0.00237441	      0.00833055	      0.00579517	      0.00052317	      0.01738550	     -0.00913544	      0.00380429	      0.00463252	      0.01560587	      0.00000000	      0.00701328	      0.00000000	     -0.00680127	     -0.03143074	     -0.00577811	      0.02455685	     -0.00138275	     -0.01746247	     -0.00084513	      0.01416597	     -0.00579517	      0.00233416	      0.02044406	     -0.01690257	     -0.00567444	      0.01227449	     -0.00519150	     -0.01183180	      0.02591728	     -0.02901608	     -0.02221481	      0.01372328	     -0.00696225	     -0.01472938	      0.02994170	     -0.03626004
      1.63333333	     -0.30588097	      0.12955674	     -0.12955674	      0.30588097	     -0.06193468	      0.50053426	      0.22498670	     -0.22498670	     -0.50053426	      0.06193468	    104.34487968	     72.42003963	     -1.82116171	    -47.37318111	     31.70843862	     80.36105430	      0.32692560	     -0.15622066	      0.35620175	     -0.07811033	     27.19225812	     -9.30628536	    -18.40272742	     -0.67904995	     -7.31659539	     10.23945965	     34.46092776	     13.20185005	     -3.31258524	     -3.33749969	     19.00490850	     17.82844057	      0.23911719	     -3.64666134	     11.51504354	     22.39194390	      3.83883719	    -13.97280519	      3.79177617	      5.22282766	      0.00094882	     -0.03123427	     -0.00488539	      0.01478642	     -0.01881375	     -0.00201941	      0.00161222	     -0.06873946	     -0.00652351	      0.01209513	     -0.18242418	     -0.00005954	     -0.00964330	      0.00327348	     -0.00058477	      0.00013940	      0.00005576	      0.00027880	      0.00017843	      0.00053529	      0.00030110	     -0.00000406	     -0.00026902	     -0.00032282	      0.00237377	      0.00832831	      0.00579361	     -0.00776504	      0.01874876	     -0.01778316	      0.00237377	      0.00832831	      0.00579361	      0.00052303	      0.01738082	     -0.00913298	      0.00380352	      0.00463127	      0.01560389	      0.00000000	      0.00700948	      0.00000000	     -0.00679944	     -0.03142228	     -0.00577496	      0.02456098	     -0.00138348	     -0.01747506	     -0.00084490	      0.01416215	     -0.00579361	      0.00233354	      0.02043856	     -0.01689802	     -0.00567291	      0.01227118	     -0.00519011	     -0.01182862	      0.02591030	     -0.02900827	     -0.02220883	      0.01371959	     -0.00696038	     -0.01472542	      0.02993364	     -0.03625028
